M48
; DRILL file KiCad 10.0.6 date 2026-09-16T09:49:35
; FORMAT={-:-/ absolute / metric / decimal}
; #@! TF.CreationDate,2026-09-16T09:49:35-04:00
; #@! TF.GenerationSoftware,Kicad,Pcbnew,10.0.6
; #@! TF.FileFunction,Plated,1,2,PTH
FMAT,2
METRIC
; #@! TA.AperFunction,Plated,PTH,ViaDrill
T1C0.300
; #@! TA.AperFunction,Plated,PTH,ComponentDrill
T2C0.889
; #@! TA.AperFunction,Plated,PTH,ComponentDrill
T3C1.000
; #@! TA.AperFunction,Plated,PTH,ComponentDrill
T4C1.500
%
G90
G05
T1
X89.86Y-123.65
X99.5Y-115.5
X107.5Y-125.54
X149.54Y-126.5
T2
X107.5Y-110.3
X107.5Y-112.84
X107.5Y-115.38
X107.5Y-117.92
X107.5Y-120.46
X107.5Y-123.0
X107.5Y-125.54
X122.74Y-110.3
X122.74Y-112.84
X122.74Y-115.38
X122.74Y-117.92
X122.74Y-120.46
X122.74Y-123.0
X122.74Y-125.54
T3
X74.38Y-125.0
X76.92Y-125.0
X79.46Y-125.0
X82.0Y-125.0
X84.54Y-125.0
X87.08Y-125.0
X89.62Y-125.0
X92.16Y-125.0
X149.54Y-118.9
X149.54Y-126.5
T4
X76.5Y-138.0
X82.85Y-135.46
X99.69Y-138.46
X106.04Y-135.92
X123.69Y-138.04
X130.04Y-135.5
X145.69Y-138.04
X152.04Y-135.5
M30
