M48
; DRILL file KiCad 10.0.6 date 2026-09-23T12:14:43
; FORMAT={-:-/ absolute / metric / decimal}
; #@! TF.CreationDate,2026-09-23T12:14:43-04:00
; #@! TF.GenerationSoftware,Kicad,Pcbnew,10.0.6
; #@! TF.FileFunction,Plated,1,2,PTH
FMAT,2
METRIC
; #@! TA.AperFunction,Plated,PTH,ViaDrill
T1C0.300
; #@! TA.AperFunction,Plated,PTH,ComponentDrill
T2C0.889
; #@! TA.AperFunction,Plated,PTH,ComponentDrill
T3C1.000
; #@! TA.AperFunction,Plated,PTH,ComponentDrill
T4C1.500
%
G90
G05
T1
X107.5Y-112.84
X113.0Y-131.0
T2
X107.5Y-110.3
X107.5Y-112.84
X107.5Y-115.38
X107.5Y-117.92
X107.5Y-120.46
X107.5Y-123.0
X107.5Y-125.54
X122.74Y-110.3
X122.74Y-112.84
X122.74Y-115.38
X122.74Y-117.92
X122.74Y-120.46
X122.74Y-123.0
X122.74Y-125.54
T3
X85.0Y-120.0
X85.0Y-127.6
X149.0Y-139.22
X149.0Y-141.76
X149.0Y-144.3
X149.0Y-146.84
X149.0Y-149.38
X149.0Y-151.92
X149.0Y-154.46
X149.0Y-157.0
T4
X86.15Y-159.04
X92.5Y-156.5
X108.15Y-139.54
X108.15Y-159.04
X114.5Y-137.0
X114.5Y-156.5
X130.15Y-159.04
X136.5Y-156.5
M30
