%TF.GenerationSoftware,KiCad,Pcbnew,10.0.6*%
%TF.CreationDate,2026-09-16T17:40:02-04:00*%
%TF.ProjectId,pcd clock,70636420-636c-46f6-936b-2e6b69636164,rev?*%
%TF.SameCoordinates,Original*%
%TF.FileFunction,Copper,L2,Bot*%
%TF.FilePolarity,Positive*%
%FSLAX46Y46*%
G04 Gerber Fmt 4.6, Leading zero omitted, Abs format (unit mm)*
G04 Created by KiCad (PCBNEW 10.0.6) date 2026-09-16 17:40:02*
%MOMM*%
%LPD*%
G01*
G04 APERTURE LIST*
G04 Aperture macros list*
%AMRoundRect*
0 Rectangle with rounded corners*
0 $1 Rounding radius*
0 $2 $3 $4 $5 $6 $7 $8 $9 X,Y pos of 4 corners*
0 Add a 4 corners polygon primitive as box body*
4,1,4,$2,$3,$4,$5,$6,$7,$8,$9,$2,$3,0*
0 Add four circle primitives for the rounded corners*
1,1,$1+$1,$2,$3*
1,1,$1+$1,$4,$5*
1,1,$1+$1,$6,$7*
1,1,$1+$1,$8,$9*
0 Add four rect primitives between the rounded corners*
20,1,$1+$1,$2,$3,$4,$5,0*
20,1,$1+$1,$4,$5,$6,$7,0*
20,1,$1+$1,$6,$7,$8,$9,0*
20,1,$1+$1,$8,$9,$2,$3,0*%
G04 Aperture macros list end*
%TA.AperFunction,ComponentPad*%
%ADD10C,2.200000*%
%TD*%
%TA.AperFunction,ComponentPad*%
%ADD11C,1.524000*%
%TD*%
%TA.AperFunction,SMDPad,CuDef*%
%ADD12RoundRect,0.152400X-1.063600X-0.609600X1.063600X-0.609600X1.063600X0.609600X-1.063600X0.609600X0*%
%TD*%
%TA.AperFunction,SMDPad,CuDef*%
%ADD13RoundRect,0.152400X1.063600X0.609600X-1.063600X0.609600X-1.063600X-0.609600X1.063600X-0.609600X0*%
%TD*%
%TA.AperFunction,ComponentPad*%
%ADD14R,2.000000X2.000000*%
%TD*%
%TA.AperFunction,ComponentPad*%
%ADD15C,2.000000*%
%TD*%
%TA.AperFunction,ComponentPad*%
%ADD16R,1.700000X1.700000*%
%TD*%
%TA.AperFunction,ComponentPad*%
%ADD17C,1.700000*%
%TD*%
%TA.AperFunction,ViaPad*%
%ADD18C,0.600000*%
%TD*%
%TA.AperFunction,Conductor*%
%ADD19C,0.200000*%
%TD*%
G04 APERTURE END LIST*
D10*
%TO.P,SW3,1,1_1*%
%TO.N,GND*%
X114500000Y-156500000D03*
%TO.P,SW3,2,2_2*%
%TO.N,Net-(U2-D1)*%
X108150000Y-159040000D03*
%TD*%
%TO.P,SW1,1,1_1*%
%TO.N,GND*%
X114500000Y-137500000D03*
%TO.P,SW1,2,2_2*%
%TO.N,Net-(U2-D3)*%
X108150000Y-140040000D03*
%TD*%
%TO.P,SW4,1,1_1*%
%TO.N,GND*%
X136500000Y-156500000D03*
%TO.P,SW4,2,2_2*%
%TO.N,Net-(U2-D0)*%
X130150000Y-159040000D03*
%TD*%
%TO.P,SW2,1,1_1*%
%TO.N,GND*%
X92500000Y-156500000D03*
%TO.P,SW2,2,2_2*%
%TO.N,Net-(U2-D2)*%
X86150000Y-159040000D03*
%TD*%
D11*
%TO.P,U2,1,D0_1*%
%TO.N,Net-(U2-D0)*%
X122740000Y-110300000D03*
D12*
X123575000Y-110300000D03*
D11*
%TO.P,U2,2,D1_2*%
%TO.N,Net-(U2-D1)*%
X122740000Y-112840000D03*
D12*
X123575000Y-112840000D03*
D11*
%TO.P,U2,3,D2_3*%
%TO.N,Net-(U2-D2)*%
X122740000Y-115380000D03*
D12*
X123575000Y-115380000D03*
D11*
%TO.P,U2,4,D3_4*%
%TO.N,Net-(U2-D3)*%
X122740000Y-117920000D03*
D12*
X123575000Y-117920000D03*
D11*
%TO.P,U2,5,D4_5*%
%TO.N,/DC*%
X122740000Y-120460000D03*
D12*
X123575000Y-120460000D03*
D11*
%TO.P,U2,6,D5_6*%
%TO.N,/CS*%
X122740000Y-123000000D03*
D12*
X123575000Y-123000000D03*
D11*
%TO.P,U2,7,D6_7*%
%TO.N,/BL*%
X122740000Y-125540000D03*
D12*
X123575000Y-125540000D03*
D13*
%TO.P,U2,8,D7_8*%
%TO.N,Net-(BZ1-+)*%
X106665000Y-125540000D03*
D11*
X107500000Y-125540000D03*
D13*
%TO.P,U2,9,D8_9*%
%TO.N,/RST*%
X106665000Y-123000000D03*
D11*
X107500000Y-123000000D03*
D13*
%TO.P,U2,10,D9/BOOT_10*%
%TO.N,/SCL*%
X106665000Y-120460000D03*
D11*
X107500000Y-120460000D03*
D13*
%TO.P,U2,11,D10_11*%
%TO.N,/SDA*%
X106665000Y-117920000D03*
D11*
X107500000Y-117920000D03*
D13*
%TO.P,U2,12,3V3_OUT_12*%
%TO.N,+3V3*%
X106665000Y-115380000D03*
D11*
X107500000Y-115380000D03*
D13*
%TO.P,U2,13,GND_13*%
%TO.N,GND*%
X106665000Y-112840000D03*
D11*
X107500000Y-112840000D03*
D13*
%TO.P,U2,14,VBUS_14*%
%TO.N,unconnected-(U2-VBUS-Pad14)_1*%
X106665000Y-110300000D03*
D11*
%TO.N,unconnected-(U2-VBUS-Pad14)*%
X107500000Y-110300000D03*
%TD*%
D14*
%TO.P,BZ1,1,+_1*%
%TO.N,Net-(BZ1-+)*%
X149540000Y-118900000D03*
D15*
%TO.P,BZ1,2,-_2*%
%TO.N,GND*%
X149540000Y-126500000D03*
%TD*%
D16*
%TO.P,J1,1,Pin_1_1*%
%TO.N,GND*%
X92160000Y-125000000D03*
D17*
%TO.P,J1,2,Pin_2_2*%
%TO.N,+3V3*%
X89620000Y-125000000D03*
%TO.P,J1,3,Pin_3_3*%
%TO.N,/SDA*%
X87080000Y-125000000D03*
%TO.P,J1,4,Pin_4_4*%
%TO.N,/SCL*%
X84540000Y-125000000D03*
%TO.P,J1,5,Pin_5_5*%
%TO.N,/RST*%
X82000000Y-125000000D03*
%TO.P,J1,6,Pin_6_6*%
%TO.N,/DC*%
X79460000Y-125000000D03*
%TO.P,J1,7,Pin_7_7*%
%TO.N,/CS*%
X76920000Y-125000000D03*
%TO.P,J1,8,Pin_8_8*%
%TO.N,/BL*%
X74380000Y-125000000D03*
%TD*%
D18*
%TO.N,*%
X89860000Y-123649997D03*
%TO.N,GND*%
X149540000Y-126500000D03*
%TO.N,Net-(BZ1-+)*%
X107500000Y-125540000D03*
%TO.N,+3V3*%
X99500000Y-115500000D03*
%TD*%
%TO.N,*%
D19*
X90500000Y-123500000D02*
X90150000Y-123850000D01*
X90270000Y-123850000D02*
X90060003Y-123850000D01*
X90060003Y-123850000D02*
X89860000Y-123649997D01*
%TO.N,GND*%
X127080000Y-147080000D02*
X136500000Y-156500000D01*
X100110000Y-137500000D02*
X92500000Y-145110000D01*
X114500000Y-137500000D02*
X100110000Y-137500000D01*
X92280000Y-156280000D02*
X92500000Y-156500000D01*
X104440000Y-112840000D02*
X92280000Y-125000000D01*
X92500000Y-145110000D02*
X92500000Y-156500000D01*
X155000000Y-135500000D02*
X155000000Y-129000000D01*
X127080000Y-135500000D02*
X127080000Y-147080000D01*
X107500000Y-112840000D02*
X104440000Y-112840000D01*
X92500000Y-156500000D02*
X114500000Y-156500000D01*
X92280000Y-125000000D02*
X92280000Y-156280000D01*
X152040000Y-129000000D02*
X149540000Y-126500000D01*
%TO.N,Net-(BZ1-+)*%
X143900000Y-127500000D02*
X109460000Y-127500000D01*
X109460000Y-127500000D02*
X107500000Y-125540000D01*
X149540000Y-118900000D02*
X140940000Y-127500000D01*
%TO.N,+3V3*%
X107500000Y-115380000D02*
X106665000Y-115380000D01*
X89860000Y-125000000D02*
X99360000Y-115500000D01*
X99240000Y-115500000D02*
X99500000Y-115500000D01*
%TD*%
M02*
