%TF.GenerationSoftware,KiCad,Pcbnew,10.0.6*%
%TF.CreationDate,2026-09-16T17:40:02-04:00*%
%TF.ProjectId,pcd clock,70636420-636c-46f6-936b-2e6b69636164,rev?*%
%TF.SameCoordinates,Original*%
%TF.FileFunction,Soldermask,Top*%
%TF.FilePolarity,Negative*%
%FSLAX46Y46*%
G04 Gerber Fmt 4.6, Leading zero omitted, Abs format (unit mm)*
G04 Created by KiCad (PCBNEW 10.0.6) date 2026-09-16 17:40:02*
%MOMM*%
%LPD*%
G01*
G04 APERTURE LIST*
%ADD10C,1.700000*%
%ADD11C,4.000000*%
%ADD12C,2.200000*%
%ADD13C,3.200000*%
%ADD14C,1.524000*%
%ADD15R,2.000000X2.000000*%
%ADD16C,2.000000*%
%ADD17R,1.700000X1.700000*%
G04 APERTURE END LIST*
D10*
%TO.C,SW3*%
X106880000Y-161580000D03*
D11*
X111960000Y-161580000D03*
D10*
X117040000Y-161580000D03*
D12*
X114500000Y-156500000D03*
X108150000Y-159040000D03*
%TD*%
D13*
%TO.C,H2*%
X157000000Y-112000000D03*
%TD*%
D10*
%TO.C,SW1*%
X106880000Y-142580000D03*
D11*
X111960000Y-142580000D03*
D10*
X117040000Y-142580000D03*
D12*
X114500000Y-137500000D03*
X108150000Y-140040000D03*
%TD*%
D13*
%TO.C,H1*%
X70000000Y-112500000D03*
%TD*%
D10*
%TO.C,SW4*%
X128880000Y-161580000D03*
D11*
X133960000Y-161580000D03*
D10*
X139040000Y-161580000D03*
D12*
X136500000Y-156500000D03*
X130150000Y-159040000D03*
%TD*%
D13*
%TO.C,H4*%
X156500000Y-168500000D03*
%TD*%
D10*
%TO.C,SW2*%
X84880000Y-161580000D03*
D11*
X89960000Y-161580000D03*
D10*
X95040000Y-161580000D03*
D12*
X92500000Y-156500000D03*
X86150000Y-159040000D03*
%TD*%
D13*
%TO.C,H3*%
X70500000Y-168000000D03*
%TD*%
D14*
%TO.C,U2*%
X122740000Y-110300000D03*
X122740000Y-112840000D03*
X122740000Y-115380000D03*
X122740000Y-117920000D03*
X122740000Y-120460000D03*
X122740000Y-123000000D03*
X122740000Y-125540000D03*
X107500000Y-125540000D03*
X107500000Y-123000000D03*
X107500000Y-120460000D03*
X107500000Y-117920000D03*
X107500000Y-115380000D03*
X107500000Y-112840000D03*
X107500000Y-110300000D03*
%TD*%
D15*
%TO.C,BZ1*%
X149540000Y-118900000D03*
D16*
X149540000Y-126500000D03*
%TD*%
D17*
%TO.C,J1*%
X92160000Y-125000000D03*
D10*
X89620000Y-125000000D03*
X87080000Y-125000000D03*
X84540000Y-125000000D03*
X82000000Y-125000000D03*
X79460000Y-125000000D03*
X76920000Y-125000000D03*
X74380000Y-125000000D03*
%TD*%
M02*
